<svg id="visual" viewBox="0 0 960 540" width="960" height="540" xmlns="http://www.w3.org/2000/svg" xmlns:xlink="http://www.w3.org/1999/xlink" version="1.1">
    <rect x="0" y="0" width="960" height="540" fill="#121212"></rect>
    <defs>
        <linearGradient id="grad1_0" x1="43.8%" y1="100%" x2="100%" y2="0%">
            <stop offset="14.444444444444446%" stop-color="#1db954" stop-opacity="1"></stop>
            <stop offset="85.55555555555554%" stop-color="#1db954" stop-opacity="1"></stop>
        </linearGradient>
    </defs>
    <defs>
        <linearGradient id="grad1_1" x1="43.8%" y1="100%" x2="100%" y2="0%">
            <stop offset="14.444444444444446%" stop-color="#1db954" stop-opacity="1"></stop>
            <stop offset="85.55555555555554%" stop-color="#268b43" stop-opacity="1"></stop>
        </linearGradient>
    </defs>
    <defs>
        <linearGradient id="grad1_2" x1="43.8%" y1="100%" x2="100%" y2="0%">
            <stop offset="14.444444444444446%" stop-color="#266033" stop-opacity="1"></stop>
            <stop offset="85.55555555555554%" stop-color="#268b43" stop-opacity="1"></stop>
        </linearGradient>
    </defs>
    <defs>
        <linearGradient id="grad1_3" x1="43.8%" y1="100%" x2="100%" y2="0%">
            <stop offset="14.444444444444446%" stop-color="#266033" stop-opacity="1"></stop>
            <stop offset="85.55555555555554%" stop-color="#1f3722" stop-opacity="1"></stop>
        </linearGradient>
    </defs>
    <defs>
        <linearGradient id="grad1_4" x1="43.8%" y1="100%" x2="100%" y2="0%">
            <stop offset="14.444444444444446%" stop-color="#121212" stop-opacity="1"></stop>
            <stop offset="85.55555555555554%" stop-color="#1f3722" stop-opacity="1"></stop>
        </linearGradient>
    </defs>
    <defs>
        <linearGradient id="grad2_0" x1="0%" y1="100%" x2="56.3%" y2="0%">
            <stop offset="14.444444444444446%" stop-color="#1db954" stop-opacity="1"></stop>
            <stop offset="85.55555555555554%" stop-color="#1db954" stop-opacity="1"></stop>
        </linearGradient>
    </defs>
    <defs>
        <linearGradient id="grad2_1" x1="0%" y1="100%" x2="56.3%" y2="0%">
            <stop offset="14.444444444444446%" stop-color="#268b43" stop-opacity="1"></stop>
            <stop offset="85.55555555555554%" stop-color="#1db954" stop-opacity="1"></stop>
        </linearGradient>
    </defs>
    <defs>
        <linearGradient id="grad2_2" x1="0%" y1="100%" x2="56.3%" y2="0%">
            <stop offset="14.444444444444446%" stop-color="#268b43" stop-opacity="1"></stop>
            <stop offset="85.55555555555554%" stop-color="#266033" stop-opacity="1"></stop>
        </linearGradient>
    </defs>
    <defs>
        <linearGradient id="grad2_3" x1="0%" y1="100%" x2="56.3%" y2="0%">
            <stop offset="14.444444444444446%" stop-color="#1f3722" stop-opacity="1"></stop>
            <stop offset="85.55555555555554%" stop-color="#266033" stop-opacity="1"></stop>
        </linearGradient>
    </defs>
    <defs>
        <linearGradient id="grad2_4" x1="0%" y1="100%" x2="56.3%" y2="0%">
            <stop offset="14.444444444444446%" stop-color="#1f3722" stop-opacity="1"></stop>
            <stop offset="85.55555555555554%" stop-color="#121212" stop-opacity="1"></stop>
        </linearGradient>
    </defs>
    <g transform="translate(960, 540)">
        <path d="M-540 0C-540.3 -41.1 -540.7 -82.3 -526.5 -120.2C-512.2 -158.1 -483.4 -192.7 -449.6 -216.5C-415.7 -240.3 -376.9 -253.3 -358.9 -286.2C-340.9 -319.1 -343.7 -372 -324.2 -406.6C-304.7 -441.1 -262.8 -457.2 -223 -463.1C-183.2 -469 -145.4 -464.7 -108.6 -475.8C-71.8 -486.9 -35.9 -513.4 0 -540L0 0Z" fill="#19241b"></path>
        <path d="M-432 0C-432.3 -32.9 -432.6 -65.8 -421.2 -96.1C-409.8 -126.4 -386.7 -154.2 -359.7 -173.2C-332.6 -192.2 -301.5 -202.6 -287.1 -228.9C-272.7 -255.3 -275 -297.6 -259.4 -325.2C-243.8 -352.9 -210.3 -365.8 -178.4 -370.5C-146.6 -375.2 -116.3 -371.7 -86.9 -380.6C-57.4 -389.5 -28.7 -410.8 0 -432L0 0Z" fill="#234b2b"></path>
        <path d="M-324 0C-324.2 -24.7 -324.4 -49.4 -315.9 -72.1C-307.3 -94.8 -290.1 -115.6 -269.8 -129.9C-249.4 -144.2 -226.1 -152 -215.3 -171.7C-204.5 -191.5 -206.2 -223.2 -194.5 -243.9C-182.8 -264.6 -157.7 -274.3 -133.8 -277.9C-109.9 -281.4 -87.3 -278.8 -65.2 -285.5C-43.1 -292.1 -21.5 -308.1 0 -324L0 0Z" fill="#27753b"></path>
        <path d="M-216 0C-216.1 -16.5 -216.3 -32.9 -210.6 -48.1C-204.9 -63.2 -193.4 -77.1 -179.8 -86.6C-166.3 -96.1 -150.7 -101.3 -143.5 -114.5C-136.3 -127.6 -137.5 -148.8 -129.7 -162.6C-121.9 -176.4 -105.1 -182.9 -89.2 -185.2C-73.3 -187.6 -58.2 -185.9 -43.4 -190.3C-28.7 -194.8 -14.4 -205.4 0 -216L0 0Z" fill="#24a24c"></path>
        <path d="M-108 0C-108.1 -8.2 -108.1 -16.5 -105.3 -24C-102.4 -31.6 -96.7 -38.5 -89.9 -43.3C-83.1 -48.1 -75.4 -50.7 -71.8 -57.2C-68.2 -63.8 -68.7 -74.4 -64.8 -81.3C-60.9 -88.2 -52.6 -91.4 -44.6 -92.6C-36.6 -93.8 -29.1 -92.9 -21.7 -95.2C-14.4 -97.4 -7.2 -102.7 0 -108L0 0Z" fill="#1db954"></path>
    </g>
    <g transform="translate(0, 0)">
        <path d="M540 0C525 36.8 510 73.6 506 115.5C502 157.3 509 204.2 486.5 234.3C464 264.4 412.1 277.7 383.9 306.1C355.7 334.6 351.3 378.1 330.4 414.4C309.6 450.6 272.5 479.5 230.8 479.3C189.2 479.2 143.1 450 103.9 455.3C64.7 460.6 32.4 500.3 0 540L0 0Z" fill="#19241b"></path>
        <path d="M432 0C420 29.5 408 58.9 404.8 92.4C401.6 125.9 407.2 163.4 389.2 187.4C371.2 211.5 329.7 222.2 307.1 244.9C284.5 267.7 281 302.5 264.4 331.5C247.7 360.5 218 383.6 184.7 383.5C151.4 383.3 114.5 360 83.1 364.2C51.8 368.5 25.9 400.2 0 432L0 0Z" fill="#234b2b"></path>
        <path d="M324 0C315 22.1 306 44.2 303.6 69.3C301.2 94.4 305.4 122.5 291.9 140.6C278.4 158.6 247.2 166.6 230.3 183.7C213.4 200.7 210.8 226.9 198.3 248.6C185.8 270.4 163.5 287.7 138.5 287.6C113.5 287.5 85.9 270 62.4 273.2C38.8 276.3 19.4 300.2 0 324L0 0Z" fill="#27753b"></path>
        <path d="M216 0C210 14.7 204 29.5 202.4 46.2C200.8 62.9 203.6 81.7 194.6 93.7C185.6 105.8 164.8 111.1 153.6 122.5C142.3 133.8 140.5 151.3 132.2 165.7C123.9 180.2 109 191.8 92.3 191.7C75.7 191.7 57.3 180 41.6 182.1C25.9 184.2 12.9 200.1 0 216L0 0Z" fill="#24a24c"></path>
        <path d="M108 0C105 7.4 102 14.7 101.2 23.1C100.4 31.5 101.8 40.8 97.3 46.9C92.8 52.9 82.4 55.5 76.8 61.2C71.1 66.9 70.3 75.6 66.1 82.9C61.9 90.1 54.5 95.9 46.2 95.9C37.8 95.8 28.6 90 20.8 91.1C12.9 92.1 6.5 100.1 0 108L0 0Z" fill="#1db954"></path>
    </g>
</svg>