<svg id="visual" viewBox="0 0 960 540" width="960" height="540" xmlns="http://www.w3.org/2000/svg" xmlns:xlink="http://www.w3.org/1999/xlink" version="1.1"><rect x="0" y="0" width="960" height="540" fill="#121212"></rect><defs><linearGradient id="grad1_0" x1="43.8%" y1="0%" x2="100%" y2="100%"><stop offset="14.444444444444446%" stop-color="#1db954" stop-opacity="1"></stop><stop offset="85.55555555555554%" stop-color="#1db954" stop-opacity="1"></stop></linearGradient></defs><defs><linearGradient id="grad1_1" x1="43.8%" y1="0%" x2="100%" y2="100%"><stop offset="14.444444444444446%" stop-color="#1db954" stop-opacity="1"></stop><stop offset="85.55555555555554%" stop-color="#277c3e" stop-opacity="1"></stop></linearGradient></defs><defs><linearGradient id="grad1_2" x1="43.8%" y1="0%" x2="100%" y2="100%"><stop offset="14.444444444444446%" stop-color="#224428" stop-opacity="1"></stop><stop offset="85.55555555555554%" stop-color="#277c3e" stop-opacity="1"></stop></linearGradient></defs><defs><linearGradient id="grad1_3" x1="43.8%" y1="0%" x2="100%" y2="100%"><stop offset="14.444444444444446%" stop-color="#224428" stop-opacity="1"></stop><stop offset="85.55555555555554%" stop-color="#121212" stop-opacity="1"></stop></linearGradient></defs><defs><linearGradient id="grad2_0" x1="0%" y1="0%" x2="56.3%" y2="100%"><stop offset="14.444444444444446%" stop-color="#1db954" stop-opacity="1"></stop><stop offset="85.55555555555554%" stop-color="#1db954" stop-opacity="1"></stop></linearGradient></defs><defs><linearGradient id="grad2_1" x1="0%" y1="0%" x2="56.3%" y2="100%"><stop offset="14.444444444444446%" stop-color="#277c3e" stop-opacity="1"></stop><stop offset="85.55555555555554%" stop-color="#1db954" stop-opacity="1"></stop></linearGradient></defs><defs><linearGradient id="grad2_2" x1="0%" y1="0%" x2="56.3%" y2="100%"><stop offset="14.444444444444446%" stop-color="#277c3e" stop-opacity="1"></stop><stop offset="85.55555555555554%" stop-color="#224428" stop-opacity="1"></stop></linearGradient></defs><defs><linearGradient id="grad2_3" x1="0%" y1="0%" x2="56.3%" y2="100%"><stop offset="14.444444444444446%" stop-color="#121212" stop-opacity="1"></stop><stop offset="85.55555555555554%" stop-color="#224428" stop-opacity="1"></stop></linearGradient></defs><g transform="translate(960, 0)"><path d="M0 540C-25.1 447.1 -50.2 354.1 -115.6 355.7C-180.9 357.3 -286.6 453.4 -317.4 436.9C-348.2 420.3 -304.2 291.2 -313.9 228.1C-323.6 165 -387 167.9 -433.7 140.9C-480.3 113.9 -510.2 57 -540 0L0 0Z" fill="#1b2b1d"></path><path d="M0 405C-18.8 335.3 -37.6 265.6 -86.7 266.8C-135.7 268 -214.9 340 -238.1 327.7C-261.2 315.3 -228.1 218.4 -235.4 171C-242.7 123.7 -290.3 125.9 -325.3 105.7C-360.2 85.4 -382.6 42.7 -405 0L0 0Z" fill="#266033"></path><path d="M0 270C-12.5 223.5 -25.1 177.1 -57.8 177.8C-90.5 178.6 -143.3 226.7 -158.7 218.4C-174.1 210.2 -152.1 145.6 -156.9 114C-161.8 82.5 -193.5 84 -216.8 70.5C-240.2 57 -255.1 28.5 -270 0L0 0Z" fill="#259a49"></path><path d="M0 135C-6.3 111.8 -12.5 88.5 -28.9 88.9C-45.2 89.3 -71.6 113.3 -79.4 109.2C-87.1 105.1 -76 72.8 -78.5 57C-80.9 41.2 -96.8 42 -108.4 35.2C-120.1 28.5 -127.5 14.2 -135 0L0 0Z" fill="#1db954"></path></g><g transform="translate(0, 540)"><path d="M0 -540C66.5 -544.5 133 -549 163.5 -503.1C193.9 -457.2 188.3 -360.9 241.6 -332.5C294.9 -304.1 407.1 -343.6 436.9 -317.4C466.7 -291.3 414.1 -199.5 417.5 -135.7C421 -71.8 480.5 -35.9 540 0L0 0Z" fill="#1b2b1d"></path><path d="M0 -405C49.9 -408.4 99.8 -411.8 122.6 -377.3C145.4 -342.9 141.2 -270.7 181.2 -249.4C221.2 -228.1 305.3 -257.7 327.7 -238.1C350 -218.4 310.5 -149.6 313.1 -101.7C315.7 -53.9 360.4 -26.9 405 0L0 0Z" fill="#266033"></path><path d="M0 -270C33.3 -272.3 66.5 -274.5 81.7 -251.6C97 -228.6 94.1 -180.5 120.8 -166.3C147.4 -152 203.5 -171.8 218.4 -158.7C233.3 -145.6 207 -99.7 208.8 -67.8C210.5 -35.9 240.2 -18 270 0L0 0Z" fill="#259a49"></path><path d="M0 -135C16.6 -136.1 33.3 -137.3 40.9 -125.8C48.5 -114.3 47.1 -90.2 60.4 -83.1C73.7 -76 101.8 -85.9 109.2 -79.4C116.7 -72.8 103.5 -49.9 104.4 -33.9C105.2 -18 120.1 -9 135 0L0 0Z" fill="#1db954"></path></g></svg>