<svg id="visual" viewBox="0 0 960 540" width="960" height="540" xmlns="http://www.w3.org/2000/svg" xmlns:xlink="http://www.w3.org/1999/xlink" version="1.1"><path d="M0 371L17.8 365.8C35.7 360.7 71.3 350.3 106.8 339.2C142.3 328 177.7 316 213.2 315.2C248.7 314.3 284.3 324.7 320 324.2C355.7 323.7 391.3 312.3 426.8 317.7C462.3 323 497.7 345 533.2 355.2C568.7 365.3 604.3 363.7 640 367.8C675.7 372 711.3 382 746.8 387C782.3 392 817.7 392 853.2 379.7C888.7 367.3 924.3 342.7 942.2 330.3L960 318L960 541L942.2 541C924.3 541 888.7 541 853.2 541C817.7 541 782.3 541 746.8 541C711.3 541 675.7 541 640 541C604.3 541 568.7 541 533.2 541C497.7 541 462.3 541 426.8 541C391.3 541 355.7 541 320 541C284.3 541 248.7 541 213.2 541C177.7 541 142.3 541 106.8 541C71.3 541 35.7 541 17.8 541L0 541Z" fill="#13873f"></path><path d="M0 404L17.8 398.2C35.7 392.3 71.3 380.7 106.8 378.2C142.3 375.7 177.7 382.3 213.2 391.3C248.7 400.3 284.3 411.7 320 417.7C355.7 423.7 391.3 424.3 426.8 416.3C462.3 408.3 497.7 391.7 533.2 386C568.7 380.3 604.3 385.7 640 392.2C675.7 398.7 711.3 406.3 746.8 402.3C782.3 398.3 817.7 382.7 853.2 377.3C888.7 372 924.3 377 942.2 379.5L960 382L960 541L942.2 541C924.3 541 888.7 541 853.2 541C817.7 541 782.3 541 746.8 541C711.3 541 675.7 541 640 541C604.3 541 568.7 541 533.2 541C497.7 541 462.3 541 426.8 541C391.3 541 355.7 541 320 541C284.3 541 248.7 541 213.2 541C177.7 541 142.3 541 106.8 541C71.3 541 35.7 541 17.8 541L0 541Z" fill="#1db954"></path><path d="M0 492L17.8 487.7C35.7 483.3 71.3 474.7 106.8 478.3C142.3 482 177.7 498 213.2 496.7C248.7 495.3 284.3 476.7 320 474C355.7 471.3 391.3 484.7 426.8 492.3C462.3 500 497.7 502 533.2 490.2C568.7 478.3 604.3 452.7 640 445.5C675.7 438.3 711.3 449.7 746.8 457.8C782.3 466 817.7 471 853.2 471.7C888.7 472.3 924.3 468.7 942.2 466.8L960 465L960 541L942.2 541C924.3 541 888.7 541 853.2 541C817.7 541 782.3 541 746.8 541C711.3 541 675.7 541 640 541C604.3 541 568.7 541 533.2 541C497.7 541 462.3 541 426.8 541C391.3 541 355.7 541 320 541C284.3 541 248.7 541 213.2 541C177.7 541 142.3 541 106.8 541C71.3 541 35.7 541 17.8 541L0 541Z" fill="#62ce82"></path></svg>