<svg id="visual" viewBox="0 0 960 540" width="960" height="540" xmlns="http://www.w3.org/2000/svg" xmlns:xlink="http://www.w3.org/1999/xlink" version="1.1"><rect x="0" y="0" width="960" height="540" fill="#121212"></rect><defs><linearGradient id="grad1_0" x1="43.8%" y1="0%" x2="100%" y2="100%"><stop offset="14.444444444444446%" stop-color="#121212" stop-opacity="1"></stop><stop offset="85.55555555555554%" stop-color="#121212" stop-opacity="1"></stop></linearGradient></defs><defs><linearGradient id="grad2_0" x1="0%" y1="0%" x2="56.3%" y2="100%"><stop offset="14.444444444444446%" stop-color="#121212" stop-opacity="1"></stop><stop offset="85.55555555555554%" stop-color="#121212" stop-opacity="1"></stop></linearGradient></defs><g transform="translate(960, 0)"><path d="M0 513C-40.1 475 -80.2 437 -140.6 432.7C-201 428.5 -281.6 458 -301.5 415C-321.4 372.1 -280.5 256.7 -269.4 195.7C-258.3 134.8 -276.9 128.3 -322.4 104.8C-368 81.2 -440.5 40.6 -513 0L0 0Z" fill="#1DB954"></path></g><g transform="translate(0, 540)"><path d="M0 -513C53.5 -491.6 107 -470.2 140.3 -431.8C173.5 -393.3 186.5 -337.8 230.4 -317.1C274.3 -296.5 349.2 -310.7 398.8 -289.8C448.5 -268.8 473.1 -212.7 487.9 -158.5C502.7 -104.4 507.9 -52.2 513 0L0 0Z" fill="#1DB954"></path></g></svg>